#!OML:ASF I:\Actors\actors\Patient Classification 1\Patient 1\Session 1\Subject1.ASF
:FULLY-SPECIFIED
:DEGREES
332
root -0.969621 17.6617 7.17137 28.1705 -2.4129 -11.2739
lowerback 22.5214 2.37905 -3.96131
upperback -1.27711 1.28439 -5.36542
thorax -14.1715 0.591544 -4.32138
lowerneck -12.5469 2.17754 1.25375
upperneck 1.14239 2.32899 8.80334
head 2.49635 1.50853 2.82734
rclavicle 1.59028e-014 7.79236e-014
rhumerus -8.36158 47.1609 -104.039
rradius 57.6584
rwrist -21.6871
rhand -13.5572 -34.1688
rfingers 7.12502
rthumb 12.556 -783.771
lclavicle 1.59028e-014 7.79236e-014
lhumerus -165.434 177.368 -85.5335
lradius 43.1919
lwrist 43.3122
lhand -26.8743 -10.9631
lfingers 7.12502
lthumb -0.29873 19.0165
rfemur -31.3868 22.9932 19.4786
rtibia 2.9307
rfoot -3.67923 -17.836
rtoes 1.77619
lfemur -30.5216 -47.2695 22.2319
ltibia -2.89535
lfoot -46.7035 60.8574
ltoes 27.239
333
root -0.972536 17.6626 7.16253 27.6972 -2.39996 -11.0275
lowerback 22.0572 2.47893 -3.84994
upperback -1.45184 1.50532 -5.1494
thorax -14.1008 0.69756 -4.19359
lowerneck -12.5581 1.40539 0.841622
upperneck 1.21366 1.33312 8.98392
head 2.56794 1.01572 2.90963
rclavicle 9.54166e-015 -3.81667e-014
rhumerus -8.347 45.0435 -103.172
rradius 59.6285
rwrist -22.6002
rhand -13.1031 -34.0285
rfingers 7.12502
rthumb 12.9938 -783.604
lclavicle 9.54166e-015 -3.81667e-014
lhumerus -165.7 182.279 -86.5061
lradius 46.8449
lwrist 41.9494
lhand -24.9345 -13.5603
lfingers 7.12502
lthumb 1.57479 16.4136
rfemur -30.7923 22.9453 19.4199
rtibia 2.76075
rfoot -3.67407 -17.9774
rtoes 1.47806
lfemur -29.4145 -45.813 20.4174
ltibia -2.75703
lfoot -42.3264 60.1137
ltoes 25.633
334
root -0.973155 17.6598 7.15137 27.1435 -2.34179 -10.7668
lowerback 21.6098 2.52435 -3.73498
upperback -1.62061 1.65866 -4.89532
thorax -14.0359 0.774975 -4.00108
lowerneck -12.5618 0.439544 -0.0860503
upperneck 1.19828 0.134876 9.71427
head 2.63597 0.434912 3.26676
rclavicle 3.33958e-014 9.54166e-015
rhumerus -8.33555 43.1083 -102.136
rradius 61.8908
rwrist -23.2509
rhand -12.8147 -34.0057
rfingers 7.12502
rthumb 13.2719 -783.563
lclavicle 3.33958e-014 9.54166e-015
lhumerus -165.618 186.891 -87.4682
lradius 50.5895
lwrist 39.8876
lhand -24.1426 -15.1631
lfingers 7.12502
lthumb 2.33962 14.8038
rfemur -30.1952 22.8964 19.3653
rtibia 2.76292
rfoot -3.80308 -18.134
rtoes 1.52364
lfemur -28.2777 -44.0892 18.4565
ltibia -2.51953
lfoot -37.5027 59.0656
ltoes 23.5651
335
root -0.971152 17.6565 7.14003 26.5097 -2.22222 -10.5173
lowerback 21.1532 2.50414 -3.56336
upperback -1.80643 1.73991 -4.62965
thorax -13.9863 0.816035 -3.80446
lowerneck -12.4765 -0.578775 -1.03061
upperneck 1.43001 -1.15862 10.8133
head 2.53839 -0.161027 3.39065
rclavicle -9.54166e-015 4.6118e-014
rhumerus -8.37168 41.1822 -101.079
rradius 64.3216
rwrist -23.4864
rhand -12.8418 -33.7892
rfingers 7.12502
rthumb 13.2457 -783.348
lclavicle -9.54166e-015 4.6118e-014
lhumerus -165.196 191.396 -88.5924
lradius 54.706
lwrist 38.3872
lhand -24.6057 -14.5231
lfingers 7.12502
lthumb 1.89237 15.4483
rfemur -29.5669 22.649 19.4366
rtibia 2.97112
rfoot -4.12408 -18.1022
rtoes 1.90016
lfemur -27.2471 -42.6681 16.7061
ltibia -2.26663
lfoot -33.5621 57.947
ltoes 21.8148
336
root -0.969683 17.6564 7.13246 25.6752 -2.07468 -10.2843
lowerback 20.8538 2.45429 -3.42038
upperback -2.00615 1.76421 -4.34016
thorax -14.048 0.832799 -3.557
lowerneck -12.3239 -1.75034 -1.94535
upperneck 1.54313 -2.65586 11.5595
head 2.66804 -0.887923 3.67965
rclavicle -4.77083e-015 -1.59028e-014
rhumerus -8.44346 39.1696 -100.026
rradius 66.8977
rwrist -23.4433
rhand -12.8167 -33.5033
rfingers 7.12502
rthumb 13.2699 -783.061
lclavicle -4.77083e-015 -1.59028e-014
lhumerus -164.397 195.562 -89.7663
lradius 58.3825
lwrist 36.692
lhand -25.3628 -15.1841
lfingers 7.12502
lthumb 1.16121 14.7925
rfemur -28.6925 22.2792 19.6812
rtibia 3.24633
rfoot -4.51214 -17.9365
rtoes 2.31771
lfemur -25.9832 -41.3889 14.8672
ltibia -2.06642
lfoot -30.0233 56.7081
ltoes 20.1638
337
root -0.964089 17.6538 7.12932 24.8029 -1.94787 -10.1165
lowerback 20.5795 2.35762 -3.24375
upperback -2.2646 1.73389 -4.02124
thorax -14.1947 0.822849 -3.28317
lowerneck -12.1222 -2.90364 -2.76877
upperneck 1.73769 -4.14807 12.1399
head 2.83133 -1.61626 3.89804
rclavicle 6.36111e-015 1.11319e-014
rhumerus -8.61271 37.3784 -98.9202
rradius 69.7214
rwrist -23.2353
rhand -12.7302 -33.4032
rfingers 7.12502
rthumb 13.3532 -782.955
lclavicle 6.36111e-015 1.11319e-014
lhumerus -163.226 199.156 -90.964
lradius 61.5877
lwrist 34.4448
lhand -25.0396 -16.294
lfingers 7.12502
lthumb 1.47328 13.6806
rfemur -27.7951 21.9061 20.004
rtibia 3.59744
rfoot -4.87637 -17.7018
rtoes 2.19119
lfemur -24.6993 -40.2394 13.1591
ltibia -1.8702
lfoot -27.1114 55.4538
ltoes 18.5675
338
root -0.953616 17.6478 7.12851 24.06 -1.86802 -9.94211
lowerback 20.1671 2.22738 -3.05568
upperback -2.63195 1.66278 -3.71847
thorax -14.3884 0.792836 -3.02062
lowerneck -11.7554 -4.06936 -3.87974
upperneck 1.96584 -5.64399 12.9692
head 3.0162 -2.34354 4.23545
rclavicle -1.51076e-014 4.13472e-014
rhumerus -8.92099 36.2047 -97.8154
rradius 72.3756
rwrist -21.4862
rhand -13.7856 -32.7962
rfingers 7.12502
rthumb 12.3359 -782.412
lclavicle -1.51076e-014 4.13472e-014
lhumerus -161.81 202.218 -92.1473
lradius 64.1751
lwrist 31.5652
lhand -22.2209 -17.6099
lfingers 7.12502
lthumb 4.19545 12.3286
rfemur -27.109 21.5545 20.2116
rtibia 4.0283
rfoot -5.28162 -17.4554
rtoes 1.66803
lfemur -23.694 -39.3094 11.7178
ltibia -1.60345
lfoot -24.8104 54.3729
ltoes 17.0637
339
root -0.943985 17.6434 7.12907 23.3185 -1.80631 -9.7248
lowerback 19.729 2.07473 -2.9435
upperback -3.05269 1.53821 -3.43354
thorax -14.6327 0.743711 -2.72048
lowerneck -11.335 -5.27042 -4.95582
upperneck 2.39037 -7.22489 13.7024
head 3.28202 -3.11157 4.52345
rclavicle 2.38542e-015 1.90833e-014
rhumerus -9.10001 34.6744 -96.677
rradius 75.3742
rwrist -20.8064
rhand -13.2345 -33.0663
rfingers 7.12502
rthumb 12.8672 -782.65
lclavicle 2.38542e-015 1.90833e-014
lhumerus -160.132 205.339 -93.547
lradius 67.0696
lwrist 30.5696
lhand -21.9709 -17.9637
lfingers 7.12502
lthumb 4.43683 11.9698
rfemur -26.4135 21.28 20.3487
rtibia 4.42405
rfoot -5.75061 -17.2946
rtoes 1.22975
lfemur -22.7124 -38.3501 10.2623
ltibia -1.32376
lfoot -22.5068 53.2457
ltoes 15.2754
340
root -0.933148 17.6396 7.13582 22.5169 -1.72573 -9.53197
lowerback 19.2306 1.87971 -2.82816
upperback -3.44865 1.36222 -3.13941
thorax -14.8107 0.67281 -2.39163
lowerneck -10.7867 -6.47321 -6.03211
upperneck 2.76967 -8.81919 14.3511
head 3.5383 -3.89652 4.77717
rclavicle 6.36111e-015 -3.81667e-014
rhumerus -9.34289 32.6023 -95.681
rradius 78.7249
rwrist -20.3217
rhand -9.31484 -33.2924
rfingers 7.12502
rthumb 16.6433 -782.599
lclavicle 6.36111e-015 -3.81667e-014
lhumerus -158.054 208.029 -95.0767
lradius 69.6156
lwrist 29.6023
lhand -21.7157 -18.3514
lfingers 7.12502
lthumb 4.6833 11.5768
rfemur -25.5967 21.1741 20.485
rtibia 4.76935
rfoot -6.27048 -17.3018
rtoes 1.32031
lfemur -21.603 -37.4137 8.81658
ltibia -1.15597
lfoot -20.5393 52.07
ltoes 13.6169
341
root -0.919017 17.6356 7.15208 21.6611 -1.63864 -9.33379
lowerback 18.566 1.63945 -2.75825
upperback -3.75484 1.12827 -2.81712
thorax -14.7804 0.583135 -1.97726
lowerneck -10.1981 -7.60107 -7.09545
upperneck 3.03607 -10.316 14.9242
head 3.76509 -4.64232 5.00576
rclavicle -2.8625e-014 -7.95139e-015
rhumerus -9.47504 30.2935 -94.7764
rradius 81.9058
rwrist -19.5325
rhand -9.23445 -33.4078
rfingers 7.12502
rthumb 16.7207 -782.708
lclavicle -2.8625e-014 -7.95139e-015
lhumerus -155.535 210.309 -96.778
lradius 71.8501
lwrist 28.9213
lhand -21.237 -18.7294
lfingers 7.12502
lthumb 5.14555 11.1881
rfemur -24.6594 21.191 20.5893
rtibia 5.05526
rfoot -6.73874 -17.4308
rtoes 1.64719
lfemur -20.3917 -36.5922 7.35258
ltibia -1.04622
lfoot -18.8675 50.9324
ltoes 12.0335
342
root -0.902041 17.6333 7.17719 20.7261 -1.57147 -9.0811
lowerback 17.8808 1.36745 -2.74447
upperback -4.03733 0.830996 -2.53823
thorax -14.7056 0.466455 -1.56444
lowerneck -9.7631 -8.62534 -8.30614
upperneck 3.67024 -11.7117 15.5189
head 4.15024 -5.3204 5.25433
rclavicle -3.73715e-014 2.54444e-014
rhumerus -9.36106 28.9721 -93.485
rradius 84.9334
rwrist -19.8422
rhand -11.9079 -32.6949
rfingers 7.12502
rthumb 14.1457 -782.193
lclavicle -3.73715e-014 2.54444e-014
lhumerus -152.769 212.342 -98.7041
lradius 73.7995
lwrist 28.2685
lhand -20.5712 -19.4103
lfingers 7.12502
lthumb 5.78833 10.4907
rfemur -23.5161 21.1517 20.6903
rtibia 5.19224
rfoot -7.04826 -17.5113
rtoes 1.47563
lfemur -19.0809 -36.0173 5.79494
ltibia -0.901772
lfoot -17.4292 49.9355
ltoes 10.442
343
root -0.884236 17.6348 7.20882 19.7223 -1.63734 -8.88891
lowerback 17.3676 1.15621 -2.67343
upperback -4.39774 0.603591 -2.34434
thorax -14.8222 0.370361 -1.3145
lowerneck -9.15665 -9.61022 -9.41972
upperneck 4.39906 -13.1116 16.1173
head 4.55611 -6.00425 5.48078
rclavicle 5.56597e-015 0
rhumerus -9.21141 28.452 -91.8317
rradius 87.9305
rwrist -21.6795
rhand -17.8992 -29.9578
rfingers 7.12502
rthumb 8.36761 -779.772
lclavicle 5.56597e-015 0
lhumerus -149.923 214.391 -100.766
lradius 75.4985
lwrist 27.5329
lhand -19.9459 -20.0408
lfingers 7.12502
lthumb 6.39201 9.84276
rfemur -22.2 21.1277 20.9043
rtibia 5.21072
rfoot -7.25249 -17.4864
rtoes 0.791793
lfemur -17.5691 -35.7464 4.25622
ltibia -0.8132
lfoot -16.5557 49.2832
ltoes 9.37502
344
root -0.865 17.6395 7.2453 18.6843 -1.78654 -8.8242
lowerback 16.9035 0.989782 -2.57893
upperback -4.73904 0.445912 -2.09995
thorax -14.9442 0.307139 -1.04372
lowerneck -8.37231 -10.5216 -10.2342
upperneck 4.85536 -14.4189 16.4443
head 4.81727 -6.66726 5.58642
rclavicle 0 -3.18055e-014
rhumerus -9.18114 27.1586 -90.478
rradius 91.0387
rwrist -23.5648
rhand -19.3347 -28.2317
rfingers 7.12502
rthumb 6.98204 -778.097
lclavicle 0 -3.18055e-014
lhumerus -146.81 216.27 -102.934
lradius 76.9672
lwrist 26.8823
lhand -19.5181 -20.4224
lfingers 7.12502
lthumb 6.80505 9.4482
rfemur -20.7741 21.2978 21.2489
rtibia 5.14591
rfoot -7.50216 -17.5548
rtoes 0.285389
lfemur -15.8902 -35.6082 2.84136
ltibia -0.824265
lfoot -16.1738 48.8371
ltoes 8.94809
345
root -0.839271 17.6465 7.28738 17.6489 -1.83531 -8.72728
lowerback 16.4919 0.739466 -2.42502
upperback -5.1004 0.1825 -1.86791
thorax -15.1198 0.18954 -0.792414
lowerneck -7.65956 -11.3197 -11.0086
upperneck 5.48922 -15.6051 16.7005
head 5.13312 -7.26468 5.66497
rclavicle 2.38542e-015 -5.40694e-014
rhumerus -9.37151 24.0059 -89.6484
rradius 94.0828
rwrist -21.5993
rhand -12.7959 -31.4261
rfingers 7.12502
rthumb 13.29 -780.982
lclavicle 2.38542e-015 -5.40694e-014
lhumerus -143.585 217.83 -105.175
lradius 78.2101
lwrist 26.4926
lhand -19.1359 -20.5662
lfingers 7.12502
lthumb 7.17398 9.29221
rfemur -19.2561 21.493 21.5402
rtibia 4.9615
rfoot -7.75157 -17.7658
rtoes 0.0881619
lfemur -14.307 -35.2043 1.40573
ltibia -0.723956
lfoot -15.7274 48.0326
ltoes 8.51709
